<svg><defs><font id="iconfont" horiz-adv-x="1024"><font-face font-family="iconfont" font-weight="500" units-per-em="1024" ascent="896" descent="-128"/><glyph glyph-name="eyes-closed-" unicode="" d="M97.696 665.148c26.052-8.684 54.276-17.368 84.67-26.053 125.196-171.51 324.93-272.825 537.69-272.825s412.495 101.314 537.691 272.825c25.329 13.75 50.657 29.671 73.815 46.316l19.54-28.224c2.17-2.17 4.341-5.79 4.341-9.407v-26.776c-2.17-2.171-4.342-5.79-4.342-9.408-66.578-96.249-153.419-177.3-254.734-236.642 4.343 0 4.343-4.342 8.685-9.408l67.301-113.617c10.855-22.434 2.895-49.933-18.092-63.683-22.433-10.855-49.933-3.618-63.683 18.092l-62.96 118.682c0 4.343-4.342 13.75-4.342 18.092-77.433-36.907-161.38-58.617-246.773-63.683V138.312c0-24.605-20.263-44.867-44.868-44.867s-44.868 20.262-44.868 44.867v141.84c-86.117 4.343-170.787 22.435-251.115 54.276 0-4.342-4.342-9.408-4.342-13.75l-65.854-113.617c-13.75-21.71-41.25-29.67-63.684-18.091-19.539 15.197-25.328 41.973-13.026 63.683l67.302 113.617C251.115 427.059 160.656 511.005 92.63 611.596c-4.342 5.065-7.96 11.579-8.684 18.092v9.407c4.342 4.342 4.342 13.75 8.684 18.092l5.066 7.96z" horiz-adv-x="1447"/><glyph glyph-name="eyes-open-" unicode="" d="M1356.167 309.823v9.408c-1.448 6.513-4.342 13.026-8.684 18.092-68.75 100.59-158.485 184.537-264.142 245.326l67.302 113.617c12.303 21.71 6.513 48.486-13.026 63.683-22.434 10.855-49.934 3.618-63.683-18.092l-68.026-113.617c0-4.342-4.342-9.407-4.342-13.75-79.604 31.842-164.274 49.934-250.391 54.276v141.117c0 24.605-20.263 44.868-44.868 44.868s-44.868-20.263-44.868-44.868V668.766c-85.394-5.066-169.34-26.776-246.773-63.683 0 4.342-4.342 13.75-4.342 18.092l-62.96 118.682c-13.75 21.71-41.25 29.67-63.683 18.092-20.987-13.75-28.224-41.25-18.092-63.683l68.749-113.617c4.342-4.342 4.342-9.408 8.684-9.408C241.707 513.9 154.866 433.571 88.288 336.599c-.723-3.618-2.17-6.513-4.342-9.407v-27.5c.724-3.619 2.171-6.513 4.342-9.408C228.681 78.971 466.047-46.948 719.333-45.5c251.839.724 487.757 126.643 627.426 336.509 5.066 5.065 5.066 14.473 9.408 18.815zM720.057 36.998c-212.76 0-412.495 101.314-537.69 272.825 217.825 296.707 634.662 361.114 931.369 144.012a679.32 679.32 0 00144.011-144.012C1132.551 137.59 932.817 35.551 720.057 36.998zm-139.67 274.996c0-77.433 62.236-139.669 139.67-139.669s139.669 62.236 139.669 139.67-62.236 139.669-139.67 139.669c-24.604 0-48.486-6.513-70.196-18.816-42.697-24.605-69.473-70.92-69.473-120.854z" horiz-adv-x="1447"/><glyph glyph-name="assets_icon_check_se" unicode="" d="M866.458 896H157.542A157.542 157.542 0 010 738.458V29.542A157.542 157.542 0 01157.542-128h708.916A157.542 157.542 0 011024 29.542v708.916A157.542 157.542 0 01866.458 896zm-10.24-326.042L394.24 128a35.84 35.84 0 00-50.33 0L167.322 293.786a34.611 34.611 0 00.665 48.844 35.84 35.84 0 0049.664.717L368.998 202.24l436.634 417.28a35.84 35.84 0 0050.38 0 34.611 34.611 0 000-49.562z" horiz-adv-x="1024"/><glyph glyph-name="assets_icon_check_no" unicode="" d="M850.042-128H173.958A173.958 173.958 0 000 45.958v676.084A173.958 173.958 0 00173.958 896h676.084A173.958 173.958 0 001024 722.042V45.958A173.958 173.958 0 00850.042-128zM173.958 885.05A163.214 163.214 0 0110.95 722.043V45.958A163.214 163.214 0 01173.96-117.05h676.083A163.214 163.214 0 011013.05 45.96v676.083A163.214 163.214 0 01850.04 885.05z" horiz-adv-x="1024"/><glyph glyph-name="icon_fullscreen" unicode="" d="M888.9 96.939l-208.896 208.93a63.42 63.42 0 01-89.702-.171 63.42 63.42 0 01-.137-89.634L799.061 7.1 694.341-97.587c-16.35-16.384-10.992-30.038 12.526-30.003l273.647.443a43.008 43.008 0 0142.632 42.667l.444 273.613c0 23.244-13.414 29.15-29.969 12.527L888.9 96.939zM134.69 671.505l208.896-208.93c24.747-24.747 64.854-24.679 89.668.17 24.781 24.713 24.85 64.853.137 89.634L224.495 761.31 329.25 866.03c16.35 16.384 10.957 30.038-12.527 29.97l-273.646-.41A43.008 43.008 0 01.41 852.923L0 579.276c0-23.21 13.38-29.115 29.935-12.527L134.69 671.505zM340.65 3.755c57.14-39.766 52.907-98.987 0-127.352H127.762A127.044 127.044 0 00.717 3.38v212.992c35.123 56.695 93.97 53.76 127.352 0V88.985a85.23 85.23 0 0185.333-85.299h127.317l-.034.069zm338.057 764.142c-57.105 39.697-52.872 98.987 0 127.317H891.7a127.044 127.044 0 00126.976-126.976V555.246c-35.09-56.66-93.97-53.76-127.317 0v127.386a85.197 85.197 0 01-85.3 85.3H678.741v-.035z" horiz-adv-x="1024"/><glyph glyph-name="record_icon_audit" unicode="" d="M512 896c281.8 0 512-230.195 512-512S793.8-128 512-128 0 102.2 0 384s230.195 512 512 512zm90.301-663.316a19.855 19.855 0 0113.922-5.627h43.433c10.828 0 19.676 8.591 19.676 19.23s-8.786 19.231-19.676 19.231h-23.757v23.22c0 10.639-8.786 19.23-19.676 19.23-10.885 0-19.676-8.591-19.676-19.23v-42.456c0-5.31 2.196-10.117 5.754-13.598zM472.202 160.22c11.623 0 21.095 9.2 21.095 20.618s-9.462 20.619-21.095 20.619H358.18c-10.655 0-19.384 8.478-19.384 18.954v332.754c0 10.419 8.673 18.954 19.389 18.954h284.232c10.66 0 19.39-8.479 19.39-18.954V415.109c0-11.417 9.41-20.618 21.093-20.618 11.674 0 21.095 9.257 21.095 20.618v138.056c0 33.198-27.612 60.185-61.573 60.185H358.185c-33.961 0-61.573-26.992-61.573-60.185V220.416c0-33.203 27.612-60.19 61.573-60.19h114.022zm129.905 313.14c10.66 0 19.22 8.417 19.22 18.79s-8.617 18.79-19.22 18.79H398.433c-10.598 0-19.215-8.427-19.215-18.79s8.617-18.79 19.22-18.79h203.669zm0-82.361c10.66 0 19.22 8.422 19.22 18.79s-8.617 18.79-19.22 18.79H398.433c-10.598 0-19.215-8.422-19.215-18.79s8.617-18.79 19.22-18.79h203.669zm-122.875-82.36c10.598 0 19.22 8.422 19.22 18.79 0 10.363-8.616 18.79-19.22 18.79h-77.276c-10.604 0-19.22-8.422-19.22-18.79 0-10.363 8.616-18.79 19.22-18.79h77.276zM619.674 147.86c61.184 0 110.965 48.661 110.965 108.463s-49.781 108.462-110.96 108.462-110.96-48.66-110.96-108.462 49.78-108.463 110.96-108.463zm0 178.514c39.526 0 71.618-31.426 71.618-69.99 0-38.58-32.153-70-71.613-70s-71.614 31.426-71.614 69.995c0 38.574 32.092 69.995 71.614 69.995z" horiz-adv-x="1024"/><glyph glyph-name="record_icon_confirma" unicode="" d="M512 896c281.8 0 512-230.195 512-512S793.8-128 512-128 0 102.2 0 384s230.195 512 512 512zm180.06-725.228h-19.405c-2.939 59.638-16.466 104.653-36.162 138.563l-.292.584c-20.582 35.379-47.923 58.47-76.739 72.499 28.81 14.326 56.157 37.125 76.739 72.207l.292.584c20.285 35.082 34.401 82.729 36.454 146.166h19.118c11.172 0 16.758 5.555 16.758 16.66 0 10.819-5.878 16.66-16.758 16.66H324.25c-10.88 0-16.758-5.555-16.758-16.66 0-10.818 5.878-16.66 16.758-16.66h19.113c2.35-63.729 16.169-111.084 36.454-146.166l.292-.584c20.582-35.374 47.923-58.173 76.738-72.207-28.81-14.029-56.156-37.12-76.738-72.5l-.292-.583c-19.405-33.618-33.229-78.638-36.163-138.563h-19.696c-10.88 0-16.758-5.555-16.758-16.368 0-11.11 5.878-16.958 16.758-16.958h367.805c11.172 0 16.758 5.847 16.758 16.958.292 10.521-5.591 16.368-16.466 16.368zM400.404 297.354l.292.876c23.808 40.632 49.69 62.264 84.086 72.79l1.47.876h.291c.59.292 1.47.584 2.059 1.168l.291.292.881.583v.292l.88.876.293.291c.588.584.88 1.168 1.469 2.048v.292a4.915 4.915 0 01.88 2.924v4.096c0 .87-.291 2.048-.88 2.626v.292c-.589.876-.88 1.46-1.47 2.048l-.291.292-1.178.292-.88.875-.292.292c-.59.292-1.178.876-2.059 1.168l-.291.291-1.178.584c-34.406 10.23-60.273 32.159-84.086 73.083l-.292.292c-18.524 32.159-30.873 75.714-33.228 134.763h282.25c-2.058-58.757-14.7-102.604-33.229-134.758l-.287-.297c-23.521-40.924-49.69-62.853-83.794-73.083l-1.766-.584-.292-.291c-.589-.292-1.177-.87-2.058-1.168l-.292-.292-.88-.87-.881-.589v-.292a4.71 4.71 0 01-1.178-2.048l-.292-.292-.88-2.631v-4.091c.292-.87.588-2.048.88-2.918l.292-.297c.292-.584.589-1.46 1.178-2.048v-.292l.88-.87v-.298l.881-.583.292-.292a4.762 4.762 0 012.058-1.168h.292l1.766-.87c34.1-10.527 60.273-32.164 83.794-72.796l.292-.87c9.994-16.666 17.935-36.839 23.808-60.519 1.178-6.722 5.591-21.632 6.472-40.632-18.816 16.66-71.445 28.646-134.36 29.527V409.61c.59.292 1.178.292 1.767.584l.292.292 3.236 1.167.292.292h.292c22.64 7.014 41.16 18.417 56.156 33.034 16.169 15.785 28.518 35.666 36.751 57.298 2.35 6.144-.589 12.862-6.763 14.91-6.175 2.631-12.939-.584-15.289-6.723-7.352-18.417-17.638-35.374-31.457-48.82-12.35-11.98-27.638-21.34-46.454-27.186l-.589-.292-1.47-.292-1.177-.584-1.177.584-.292.584h-1.178c-18.816 5.847-34.104 15.206-46.453 27.187-14.111 13.445-24.116 30.402-31.458 48.819-2.355 6.144-9.113 9.062-15.001 6.723-6.17-2.34-9.114-8.771-6.759-14.91 8.525-21.632 20.286-41.513 36.752-57.293 14.694-14.622 33.515-26.025 56.156-33.039l.292-.292 2.938-1.167.881-.292c.292-.292.88-.292 1.47-.584V225.736c-58.804 0-109.958-9.933-134.36-23.972.881 9.354 2.94 20.173 6.467 35.082 6.487 23.967 14.423 43.843 24.422 60.508z" horiz-adv-x="1024"/><glyph glyph-name="certification_icon_d" unicode="" d="M768 429.568v373.35c0 13.958-9.318 23.266-23.276 23.266H93.092c-13.968 0-23.276-9.319-23.276-23.276V58.184c0-13.968 9.319-23.276 23.276-23.276h397.916a276.705 276.705 0 00-25.549 116.368c0 153.6 125.665 279.265 279.265 279.265 7.834 0 15.596-.318 23.276-.963zM537.016-34.918H93.082C41.882-34.918-.01 6.984-.01 58.184v744.724C0 854.118 41.882 896 93.082 896h651.642c51.2 0 93.092-41.882 93.092-93.082V414.495C946.012 375.94 1024 272.282 1024 151.275 1024-2.324 898.324-128 744.724-128c-82.247 0-156.487 36.035-207.708 93.082zm-141.383 460.8c0-27.3-16.282-51.2-34.909-51.2H197.816c-18.616 0-34.908 23.9-34.908 51.2 0 27.32 16.292 51.2 34.919 51.2h162.897c18.617 0 34.919-23.88 34.919-51.2zm0-209.45c0-27.3-16.282-51.2-34.909-51.2H197.816c-18.616 0-34.908 23.9-34.908 51.2 0 27.31 16.292 51.2 34.919 51.2h162.897c18.617 0 34.919-23.89 34.919-51.2zm256 418.919c0-27.31-16.282-51.2-34.909-51.2H197.816c-18.616 0-34.908 23.89-34.908 51.2 0 27.3 16.292 51.2 34.919 51.2h418.897c18.617 0 34.919-23.9 34.919-51.2zm216.443-439.87c13.957 13.968 13.957 30.25 0 46.541-13.968 13.968-34.919 13.968-48.876 0L712.14 134.984l-41.88 41.881c-13.968 13.968-34.92 13.968-48.876 0-13.968-13.957-13.968-34.898 0-48.865l65.157-65.167c13.967-13.957 34.918-13.957 48.875 0l132.66 132.659z" horiz-adv-x="1024"/><glyph glyph-name="certification_icon_f" unicode="" d="M768 429.568v373.35c0 13.958-9.318 23.266-23.276 23.266H93.092c-13.968 0-23.276-9.319-23.276-23.276V58.184c0-13.968 9.319-23.276 23.276-23.276h397.916a276.705 276.705 0 00-25.549 116.368c0 153.6 125.665 279.265 279.265 279.265 7.834 0 15.596-.318 23.276-.963zM537.016-34.918H93.082C41.882-34.918-.01 6.984-.01 58.184v744.724C0 854.118 41.882 896 93.082 896h651.642c51.2 0 93.092-41.882 93.092-93.082V414.495C946.012 375.94 1024 272.282 1024 151.275 1024-2.324 898.324-128 744.724-128c-82.247 0-156.487 36.035-207.708 93.082zm-141.383 460.8c0-27.3-16.282-51.2-34.909-51.2H197.816c-18.616 0-34.908 23.9-34.908 51.2 0 27.32 16.292 51.2 34.919 51.2h162.897c18.617 0 34.919-23.88 34.919-51.2zm0-209.45c0-27.3-16.282-51.2-34.909-51.2H197.816c-18.616 0-34.908 23.9-34.908 51.2 0 27.31 16.292 51.2 34.919 51.2h162.897c18.617 0 34.919-23.89 34.919-51.2zm256 418.919c0-27.31-16.282-51.2-34.909-51.2H197.816c-18.616 0-34.908 23.89-34.908 51.2 0 27.3 16.292 51.2 34.919 51.2h418.897c18.617 0 34.919-23.9 34.919-51.2zm55.654-490.086l-57.928-57.928a20.48 20.48 0 010-28.959l14.48-14.48a20.48 20.48 0 0128.969 0l57.927 57.929 57.928-57.928a20.48 20.48 0 0128.959 0l14.48 14.48a20.48 20.48 0 010 28.958l-57.929 57.928 57.928 57.927a20.48 20.48 0 010 28.97l-14.469 14.479a20.48 20.48 0 01-28.959 0l-57.927-57.928-57.928 57.928a20.48 20.48 0 01-28.969 0l-14.48-14.48a20.48 20.48 0 010-28.969l57.928-57.927z" horiz-adv-x="1024"/><glyph glyph-name="otc_alipay" unicode="" d="M1023.808 42.368V36a163.808 163.808 0 00-163.84-163.808H163.84A163.808 163.808 0 000 36.032V732.16A163.808 163.808 0 00163.84 896H860a163.808 163.808 0 00163.808-163.808V42.368zM844.8 247.744c-40.96 14.336-95.616 34.784-156.832 57.12a949.056 949.056 0 0190.08 222.56H573.28v61.44h245.728v43.392l-245.728-2.432V752.64H472.16c-18.24 0-21.728-20.48-21.728-20.48v-102.4H204.8V588.8h245.696v-61.408h-204.8v-40.96h409.536a805.536 805.536 0 00-64.896-148.224c-128.384 42.784-266.208 77.6-354.24 55.072a213.568 213.568 0 01-112-63.264C28.672 213.088 97.856 35.968 299.36 35.968c120 0 236.096 67.36 325.76 177.728 134.336-65.92 398.688-176.288 398.688-176.288v157.248s-32.352 4.096-178.976 53.056zm-563.712-144.96c-158.88 0-204.736 124.672-126.336 194.08 25.6 23.36 56.992 39.36 90.912 46.272 93.6 10.24 189.824-35.616 293.632-86.592-74.944-94.592-166.656-153.792-258.208-153.792z" horiz-adv-x="1056"/><glyph glyph-name="otc_wechat" unicode="" d="M390.304 250.976c-61.056-36.864-70.112 20.704-70.112 20.704L243.68 465.088c-29.44 91.904 25.472 41.44 25.472 41.44s47.136-38.624 82.88-62.144c35.776-23.552 76.512-6.912 76.512-6.912L928.8 687.584c-92.32 124.384-244.768 205.728-417.376 205.728-281.664 0-510.016-216.448-510.016-483.488 0-153.6 75.616-290.304 193.376-378.88l-21.248-132.256s-10.336-38.624 25.536-20.704c24.448 12.192 86.784 55.968 123.872 82.56a533.12 533.12 0 01188.48-34.24c281.696 0 510.08 216.48 510.08 483.52 0 77.344-19.264 150.4-53.344 215.232-159.392-103.872-530.08-345.28-577.856-374.08z" horiz-adv-x="1024"/><glyph glyph-name="otc_paypal" unicode="" d="M316-54.048L333.6 51.2h-220l123.2 773.696c0 2.848 0 2.848 2.944 8.512 0 0 2.912 2.88 8.8 2.88H553.6c102.656 0 170.144-22.784 208.256-62.592a203.2 203.2 0 0035.2-59.744c2.944-28.448 2.944-54.048 0-85.344v-25.6l17.6-8.512c11.744-8.544 26.4-14.24 35.2-25.6 14.688-17.088 26.4-36.992 29.344-62.592 2.944-28.448 2.944-59.712-2.944-88.16-8.8-36.992-17.6-68.288-38.112-99.552-14.688-25.6-35.2-48.384-61.6-62.592-23.488-14.208-52.8-28.448-79.2-36.992-35.2-8.512-64.544-11.36-96.8-11.36h-35.2c-35.2 0-64.544-25.6-70.4-59.744v-11.36L465.6-45.536v-8.512s0-2.848-2.944-2.848h-2.912c0 5.696-143.744 2.88-143.744 2.88zm539.744 679.84c0-8.544-2.944-11.392-2.944-19.936-44-213.312-184.8-281.6-366.656-281.6h-93.888c-23.456 0-38.112-14.208-44-36.96L301.344-8.544 289.6-93.856c-2.944-11.392 8.8-22.752 20.544-25.6h170.112c20.544 0 35.2 14.208 38.144 34.112v8.544l32.256 193.408L553.6 128c2.944 19.904 20.544 34.144 38.144 34.144H615.2c161.344 0 281.6 65.408 322.656 247.456 14.688 76.8 8.8 142.208-32.256 184.896-17.6 11.36-29.344 22.72-49.856 31.296zm-44 17.056c-8.8 0-11.744 2.848-20.544 2.848s-14.656 2.848-20.544 2.848c-26.4 2.848-55.712 8.512-82.112 8.512h-246.4c-20.544 0-35.2-14.208-38.144-34.112l-49.856-327.136v-8.512c2.912 22.72 23.456 36.96 44 36.96H492c181.856 0 325.6 71.136 366.656 281.6 0 8.544 2.944 11.392 2.944 19.936-11.744 2.816-23.456 11.36-35.2 14.208l-14.656 2.848c0-2.848 0 0 0 0zM404 620.096c2.944 19.904 20.544 34.112 38.144 34.112h246.4c26.4 0 55.712 0 82.112-8.512 8.8 0 14.688-2.88 20.544-2.88 8.8 0 11.744-2.816 20.544-2.816l8.8-2.848c11.712-2.848 23.456-8.544 35.2-14.208 11.712 76.8 0 130.848-44 176.32-46.944 54.08-134.944 76.8-243.488 76.8h-316.8c-23.456 0-38.112-14.208-44-36.96L78.4 25.6C75.456 11.392 87.2 0 101.856-5.696h199.488L351.2 295.808c2.944 0 52.8 324.288 52.8 324.288z" horiz-adv-x="1024"/><glyph glyph-name="otc_master" unicode="" d="M305.804 63.395l15.662.396 15.546 1.163 15.244 1.932 15.01 2.606L382 72.867l14.522 4.12 14.08 4.84 13.917 5.422 13.358 6.168 13.056 6.656 12.8 7.4 12.335 7.913 11.962 8.518 11.543 9.123 11.008 9.542 10.613 10.193 10.077 10.566 9.565 11.101 8.913 11.497 8.425 11.915 7.936 12.405 7.308 12.753 6.795 13.126 6.051 13.708 5.47 13.684 4.747 14.196 4.096 14.476 3.724 14.662 2.676 15.08 1.978 15.221 1.117 15.313.396 15.71-.396 15.592-1.117 15.407-1.978 15.197-2.653 14.894-3.398 14.662-4.096 14.383-4.724 14.173-5.493 13.684-6.05 13.452-6.773 13.149-7.33 12.637-7.914 12.428-8.424 11.915-8.914 11.404-9.588 11.101-10.124 10.636-10.612 10.03-11.008 9.542-11.543 9.123-11.94 8.541-12.52 7.796-12.8 7.308-13.033 6.656-13.405 6.167-14.033 5.656-13.917 4.561L382 662.435l-14.732 3.374-15.127 2.677-15.128 1.931-15.546 1.164-15.64.396-15.778-.42-15.523-1.14-15.244-1.931-15.15-2.63-14.708-3.375-14.546-4.189-14.29-4.584-13.823-5.656-13.382-6.167-13.359-6.656-12.94-7.308-12.427-7.889-11.939-8.541-11.543-9.123-11.148-9.542-10.612-10.03-10.217-10.59-9.565-11.1-8.913-11.404-8.565-11.916-7.913-12.427-7.424-12.638-6.679-13.149-6.144-13.451-5.446-13.708-4.864-14.126-4.096-14.383-3.397-14.708L3.514 414.3 1.56 399.127.442 383.744 0 368.268l.396-15.803 1.117-15.5L3.49 321.77l2.7-14.941 3.397-14.685 4.096-14.476 4.864-14.196 5.446-13.685 6.144-13.684 6.68-13.15 7.4-12.753 7.913-12.404 8.588-11.916 8.913-11.496 9.565-11.078 10.24-10.613 10.59-10.17 11.147-9.542 11.543-9.123 11.939-8.54 12.428-7.89 12.753-7.4 13.382-6.657 13.358-6.167 13.918-5.423 14.196-4.84 14.545-4.12 14.709-3.374 15.15-2.677 15.244-1.978 15.57-1.14 15.732-.396m412.555.14l15.733.396 15.546 1.163 15.244 1.932 15.15 2.7 14.708 3.374 14.546 4.12 14.196 4.84 13.917 5.423 13.382 6.167 13.359 6.656 12.753 7.4 12.451 7.913 11.939 8.518 11.543 9.123 11.148 9.542 10.612 10.17 10.194 10.59 9.588 11.1 8.914 11.497 8.54 11.916 7.96 12.404 7.4 12.753 6.68 13.126 6.19 13.708 5.423 13.684 4.887 14.197 4.096 14.475 3.561 14.546 2.676 15.127 1.955 15.197 1.117 15.313.396 15.71-.396 15.592-1.117 15.407-1.955 15.197-2.676 14.894-3.398 14.662-4.096 14.383-4.864 14.173-5.422 13.684-6.214 13.452-6.68 13.149-7.563 12.73-7.96 12.428-8.54 11.915-8.914 11.404-9.588 11.101-10.194 10.566-10.612 10.054-11.171 9.542-11.52 9.123-11.939 8.54-12.404 7.75-12.754 7.308-13.358 6.656-13.382 6.167-13.964 5.656-14.196 4.561-14.546 4.166-14.708 3.374-15.104 2.677-15.244 1.931-15.546 1.164-15.779.396-15.639-.42-15.57-1.14-15.196-1.931-15.058-2.677-14.708-3.374-14.522-4.166-14.104-4.561-13.894-5.656-13.381-6.167-13.196-6.656-12.753-7.308-12.335-7.889-11.939-8.541-11.543-9.123-11.008-9.542-10.66-9.937-10.076-10.613-9.589-11.077-8.913-11.404-8.425-11.916-7.912-12.427-7.331-12.637-6.773-13.15-6.05-13.451-5.446-13.708-4.725-14.126-4.096-14.406-3.398-14.662-2.676-14.895-1.955-15.197-1.117-15.383-.675-15.57.396-15.802 1.117-15.5 1.978-15.196 2.7-14.941 3.397-14.685 4.096-14.476 4.725-14.196 5.446-13.685 6.05-13.684 6.796-13.15 7.308-12.753 7.913-12.38 8.424-11.916 8.937-11.497 9.565-11.078 10.31-10.612 10.612-10.17 11.008-9.542 11.544-9.123 11.938-8.541 12.335-7.89 12.753-7.4 13.08-6.657 13.358-6.167 13.894-5.422 14.15-4.841 14.522-4.12 14.708-3.374 15.035-2.676 15.22-1.978 15.57-1.14 15.639-.396" horiz-adv-x="1024"/><glyph glyph-name="otc_bank" unicode="" d="M931.84 896H92.16C40.96 896 0 854.08 0 801.6V600.736h1024V801.6c0 48.96-40.96 94.4-92.16 94.4zM0-33.6C0-86.08 40.96-128 92.16-128h839.68c51.2 0 92.16 41.92 92.16 94.4v491.008H0V-33.6zm836.256 139.84h75.104V18.816h-75.104v87.424zm-95.552 0h75.072V18.816h-75.072v87.424zm-95.584 0h75.104V18.816H645.12v87.424z" horiz-adv-x="1056"/><glyph glyph-name="account_icon_warning" unicode="" d="M512-88.64a472.64 472.64 0 100 945.28 472.64 472.64 0 000-945.28zm19.712 827.968a59.072 59.072 0 01-59.072-59.072V328.512a59.072 59.072 0 11118.144 0v351.744a59.072 59.072 0 01-59.072 59.072zm0-548.224a59.072 59.072 0 01-59.072-59.072V93.568a59.072 59.072 0 01118.144 0v38.4a59.072 59.072 0 01-59.072 59.136z" horiz-adv-x="1024"/><glyph glyph-name="cc_margin" unicode="" d="M671.644 30.123c0-33.55 9.558-64.783 26.368-91.734a15.502 15.502 0 00-13.226-23.722H94.72C42.425-85.333 0-43.122 0 8.903v735.972c0 52.124 42.425 94.336 94.635 94.236h84.75c11.975 0 22.371-8.249 25.202-19.854 8.305-34.276 37.29-59.549 72.163-59.549h372.836c33.08 0 61.866 25.288 70.058 59.549a25.913 25.913 0 0025.202 19.854h84.864c52.31 0 94.734-42.211 94.734-94.236V216.718c0-10.026-9.67-17.55-19.54-14.933a195.37 195.37 0 01-48.513 6.158c-101.973 0-184.747-79.616-184.747-177.82zM231.566 583.11c-17.65 0-32.455-17.593-32.455-34.958S210.318 512 227.868 512h475.734c17.465 0 35.954 18.674 35.954 36.153-1.167 18.773-16.072 34.958-33.508 34.958H231.566zm0-199.111c-17.664 0-32.355-14.976-32.455-32.242 0-17.493 17.55-38.87 35.086-38.87h475.776c17.536 0 29.583 21.391 29.583 38.87-1.28 18.674-16.171 32.242-33.608 32.242H231.566zm215.822-270.222c17.707 0 36.267 18.674 36.168 36.266-1.28 18.674-16.214 34.845-33.935 34.845H231.765c-17.72 0-32.654-17.365-32.654-34.845 0-17.493 11.307-36.266 29.013-36.266h219.264zM341.333 796.444c-20.807 0-42.666 22.287-42.666 56.89 0 20.48 21.646 42.666 42.666 42.666h256c21.02 0 42.667-22.187 42.667-42.667 0-34.602-21.76-56.889-42.667-56.889h-256zm526.223-625.777c86.428 0 156.344-66.902 156.444-149.277C1024-61.099 953.984-128 867.556-128S711.11-61.099 711.11 21.39c0 82.375 70.116 149.277 156.445 149.277zm-9.458-50.233c-15.687-1.067-28.402-5.05-38.67-12.231-13.796-9.287-20.552-22.571-20.552-40.107 0-19.67 9.188-34.546 28.118-44.644l31.104-11.15v-62.18c-8.391 1.067-14.877 3.727-19.485 7.965-6.2 5.86-9.728 15.957-10.809 29.767h-31.36c1.622-21.788 8.107-37.987 19.47-48.626 9.729-9.03 23.794-14.08 42.184-15.402v-23.382h17.834v23.382c16.498 1.066 30.01 5.049 40.832 11.946 14.607 9.572 21.903 23.652 21.903 42.525 0 19.385-9.458 34.275-28.118 44.63-1.621 1.066-13.255 5.318-34.617 13.013v58.453c6.77-.797 12.175-2.645 16.228-5.575 6.485-4.523 10.539-12.231 12.174-23.382h30.82c-2.702 19.4-9.472 33.48-20.551 41.984-9.458 7.439-22.443 11.947-38.67 13.014v21.788h-17.835v-21.788zM881.778 0c.995-.27 1.735-.54 2.716-1.08 17.067-6.5 25.728-15.987 25.728-28.175 0-8.946-3.456-15.986-10.382-20.864-4.95-3.513-11.136-5.689-18.062-6.77V0zm-28.445 42.667c-18.958 7.537-28.444 16.839-28.444 27.875 0 10.724 3.627 18.56 11.15 23.21 4.181 2.902 10.041 4.936 17.294 5.804v-56.89z" horiz-adv-x="1024"/><glyph glyph-name="icon_attention" unicode="" d="M511.078-33.28A416.41 416.41 0 01929.28 384.922a416.41 416.41 0 01-418.202 418.15 416.41 416.41 0 01-418.15-418.15A416.41 416.41 0 01511.078-33.28zm0-92.928C232.294-126.208 0 106.138 0 384.922S232.294 896 511.078 896s511.13-232.294 511.13-511.078-232.346-511.13-511.13-511.13zm0 767.13c30.72 0 51.2-20.48 51.2-51.2v-204.8c0-30.72-20.48-51.2-51.2-51.2s-51.2 20.48-51.2 51.2v204.8c0 30.72 20.48 51.2 51.2 51.2zm0-512c30.72 0 51.2 20.48 51.2 51.2s-20.48 51.2-51.2 51.2-51.2-20.48-51.2-51.2 20.48-51.2 51.2-51.2z" horiz-adv-x="1024"/><glyph glyph-name="icon_ins" unicode="" d="M248.692-81.455H49.943v664.949h198.75V-81.455zm728.763 0h-198.75V273.78c0 92.58-32.86 138.66-97.978 138.66-51.665 0-84.34-25.787-100.77-77.452V-81.455h-198.75s2.607 598.482 0 664.949h156.858l12.102-133.027h4.096c40.774 66.467 105.891 111.57 195.212 111.57 67.956 0 122.833-18.945 164.77-66.56 42.171-47.663 63.21-111.71 63.21-201.496V-81.455zM251.95 749.708c0-55.11-45.94-99.747-102.68-99.747-56.785 0-102.726 44.683-102.726 99.747 0 55.11 45.987 99.747 102.726 99.747 56.693 0 102.68-44.638 102.68-99.747z" horiz-adv-x="1024"/><glyph glyph-name="google_play" unicode="" d="M3328 875.52A107.52 107.52 0 003435.52 768V0A107.52 107.52 0 003328-107.52H128A107.52 107.52 0 0020.48 0v768A107.52 107.52 0 00128 875.52h3200zm0 20.48H128A128.384 128.384 0 010 768V0a128.384 128.384 0 01128-128h3200A128.384 128.384 0 013456 0v768a128.384 128.384 0 01-128 128zM1214.976 647.936h-79.104v-23.552h55.552a45.11 45.11 0 00-12.032-26.88 55.962 55.962 0 00-40.96-16.384 58.88 58.88 0 000 117.76 48.486 48.486 0 0039.936-17.408l2.048-2.048 16.896 17.152-1.28 1.792a65.254 65.254 0 01-25.088 17.664 78.669 78.669 0 01-32.512 6.656 82.688 82.688 0 010-165.376 77.517 77.517 0 0158.112 23.296 72.368 72.368 0 0119.968 53.248 66.355 66.355 0 01-1.28 12.032l-.256 2.048zm24.576-87.296h94.976v24.064h-69.888v43.52h62.976v23.552h-62.976v43.52h69.888v24.064h-94.976V560.64zm110.336 134.656h43.008V560.64h24.832v134.656h42.752v24.064h-110.592v-24.064zm182.016-134.656h24.832v158.72h-24.832V560.64zm44.544 134.656h43.008V560.64h24.832v134.656h42.752v24.064h-110.592v-24.064zm251.648 27.392a77.26 77.26 0 01-58.112-24.064 85.402 85.402 0 010-117.248 82.202 82.202 0 01116.224 0 85.402 85.402 0 010 117.248 78.054 78.054 0 01-58.112 24.064zm0-141.568a54.118 54.118 0 00-39.936 16.64 62.643 62.643 0 000 84.48 56.32 56.32 0 0079.872 0 62.643 62.643 0 000-84.48 54.087 54.087 0 00-39.936-16.64zm202.752 138.24v-92.416l.512-21.76-71.168 114.176h-27.904V560.64h24.832v98.304l-.768 21.504 73.984-118.528.768-1.28h24.576v158.72h-24.832zM1744.384 339.2a108.928 108.928 0 11109.312-108.8 107.238 107.238 0 01-109.312 108.8zm0-174.848a66.074 66.074 0 1061.44 66.048 62.925 62.925 0 00-61.44-66.048zM1505.792 339.2a108.928 108.928 0 11109.312-108.8 107.392 107.392 0 01-109.312 108.8zm0-174.848a66.074 66.074 0 1061.44 66.048 62.925 62.925 0 00-61.44-66.048zm-283.648 141.312v-46.08h110.592a96.486 96.486 0 00-25.088-58.112 113.126 113.126 0 00-85.504-33.792 122.88 122.88 0 100 245.76 118.272 118.272 0 0083.456-33.024l32.512 32.512a161.28 161.28 0 01-115.968 46.592 169.114 169.114 0 110-338.176 155.264 155.264 0 01118.016 47.36 153.37 153.37 0 0139.936 108.288 160.563 160.563 0 01-2.304 28.672h-155.648zm1159.936-35.84a101.018 101.018 0 01-93.184 69.376 103.526 103.526 0 01-102.656-108.8 108.39 108.39 0 01198.656-60.672l-37.12 24.576a62.26 62.26 0 00-53.504-29.952 54.989 54.989 0 00-52.736 33.024l145.664 60.16-5.12 12.288zm-148.48-36.352a59.93 59.93 0 0057.088 63.744 41.805 41.805 0 0040.192-23.296l-97.28-40.448zM2115.328 128h47.872v320h-47.872V128zm-78.336 186.88h-1.792a75.264 75.264 0 01-57.344 24.32 109.03 109.03 0 010-217.856 73.78 73.78 0 0157.344 24.832h1.792V130.56c0-41.728-22.272-64-58.112-64a60.34 60.34 0 00-55.04 38.656l-41.472-17.152a103.373 103.373 0 0196.512-64.512c56.064 0 103.424 33.024 103.424 113.408v195.584h-45.312V314.88zm-55.04-150.528a66.176 66.176 0 000 131.84 66.406 66.406 0 000-131.84zM2606.336 448h-114.688V128h47.872v121.344h66.816a99.482 99.482 0 110 198.656zm1.024-154.112h-67.84v109.568h67.84a54.81 54.81 0 100-109.568zm295.424 45.824a89.395 89.395 0 01-85.248-48.896l42.24-17.664a45.568 45.568 0 0043.776 23.296 46.08 46.08 0 0050.176-41.216v-3.072a106.906 106.906 0 01-49.92 12.288c-45.568 0-92.16-25.088-92.16-72.192a73.958 73.958 0 0179.616-70.4 67.763 67.763 0 0160.928 31.488h1.536v-24.832h46.08v122.624c0 56.832-42.496 88.576-97.024 88.576zm-5.888-175.36a33.28 33.28 0 00-37.376 27.136c0 24.832 27.136 34.304 50.688 34.304a85.018 85.018 0 0043.52-10.752 57.78 57.78 0 00-56.832-50.688zM3167.744 332.8l-54.784-138.752h-1.536L3054.592 332.8h-51.456l85.248-194.048-48.64-107.776h49.92L3220.992 332.8h-53.248zM2737.664 128h47.616v320h-47.616V128zM255.232 382.464v273.152c-.256 7.86 0 15.718.768 23.552a25.062 25.062 0 0012.032 21.504c9.216 3.84 12.8-6.656 17.92-11.776l294.912-302.592a17.075 17.075 0 00-.512-29.696C485.12 261.12 390.4 164.864 295.424 69.12c-17.408-17.408-32.512-13.568-38.656 10.752a100.94 100.94 0 00-1.28 23.296c-.256 93.184-.256 186.112-.256 279.296zm39.424 326.912a34.479 34.479 0 0022.528-7.936C440.32 631.808 562.944 561.92 686.08 492.8c14.592-8.192 17.152-13.824 3.84-26.112-24.832-23.296-48.128-48.128-72.192-72.448-6.144-6.144-11.008-9.984-18.944-1.536A264848.874 264848.874 0 01295.68 706.048a8.166 8.166 0 00-1.024 3.328zm38.656-632.832c88.064 90.112 173.824 177.408 258.56 265.472 13.056 13.312 20.224 13.312 32.256-.256a757.76 757.76 0 0154.784-56.32c11.52-11.008 12.288-16.384-3.328-24.832C573.952 205.056 473.088 148.48 371.968 92.416a78.234 78.234 0 00-38.656-15.872zm521.984 303.104a30.182 30.182 0 00-16.128-26.624c-40.448-23.04-80.896-45.568-121.088-68.608a13.568 13.568 0 00-18.688 4.608c-23.04 24.064-46.08 48.128-69.632 71.68a11.494 11.494 0 00.256 19.456 7252.83 7252.83 0 0181.408 82.176 15.616 15.616 0 0022.016 3.584c33.792-19.968 67.84-39.168 101.888-58.368a33.28 33.28 0 0019.968-27.904z" horiz-adv-x="3456"/><glyph glyph-name="icon_drop" unicode="" d="M0 896h2560L1280 128z" horiz-adv-x="2560"/><glyph glyph-name="icon_next" unicode="" d="M314.778 748.237l370.278-365.875L314.778 16.486a25.395 25.395 0 010-36.25c10.137-9.932 26.624-9.932 36.659 0l388.505 384a25.395 25.395 0 010 36.25l-388.608 384a26.112 26.112 0 01-36.556 0 25.395 25.395 0 010-36.25z" horiz-adv-x="1024"/><glyph glyph-name="icon_language" unicode="" d="M563.59 317.586c-43.35 37.157-39.204 53.638-94.94 53.638-55.685 0-90.794-12.385-76.36-90.794 14.482-78.41 55.734-43.35 51.59-101.084-4.096-57.783 10.337-72.265 18.578-86.698 8.29-14.434 37.156-55.735 47.494 2.048 10.289 57.782 28.867 90.794 51.59 119.71 22.674 28.867 45.349 66.024 2.048 103.18zM410.868 453.73c2.097 28.915 49.542 59.83 82.554 74.313 33.012 14.433 61.927 18.53 57.783 43.3-4.145 24.771-12.386 43.35-61.928 43.35-49.493 0-28.867-68.12-70.12-26.82-41.301 41.253 8.241 28.868 28.867 39.205 20.627 10.289 41.253 47.445 6.193 49.542-35.108 2.048-28.867-16.53-57.783-6.193-28.867 10.29-41.252-37.156-59.83-28.915-12.386 4.144-43.35 28.915-66.024 51.59-43.398-35.109-76.361-80.457-99.084-134.096 6.192-70.217 43.349-105.276 43.349-105.276s18.53-45.398 136.192-101.133c0 0 22.723-2.048-4.145 24.771-26.819 26.82-53.638 57.783-22.674 74.314 30.964 16.481 41.252 16.481 49.542-16.53 8.24-33.013 35.06-12.386 37.108 18.578zm470.552-10.338c0 4.145 0 6.193-2.097 10.338 0 8.289-2.048 16.53-4.144 22.723 0 4.096-2.048 8.24-2.048 12.336-2.048 8.29-4.145 14.483-6.193 22.723 0 4.145-2.048 6.193-2.048 10.338-4.145 10.289-6.193 20.626-10.338 28.867l-6.192 12.385c-2.048 6.193-6.193 10.338-8.29 16.53-2 4.097-6.144 10.29-8.192 14.434-2.097 4.096-4.145 8.29-8.29 12.386-4.095 4.096-6.192 10.289-10.288 14.433-2.097 2.048-4.145 6.193-6.193 8.29a401.7 401.7 0 01-49.542 53.638c-2.048 0-2.048 2.048-4.145 2.048-6.193 6.193-12.385 10.289-20.626 16.481h-2.048a342.796 342.796 0 01-97.036 53.639c-10.24-16.482-20.578-37.108-32.963-45.349-18.579-10.338-16.53-51.59 18.53-47.494 0 0-10.29-10.289 0-47.445 10.337-37.157 26.818-45.398 78.457-24.771 22.674 8.289 39.205 4.144 37.157-18.53-6.193-47.494-41.302-45.446-14.483-121.807 16.53-47.446 57.783-63.976 74.314-101.084 8.289-20.626 41.252-37.156 68.071-51.59 2.097 10.289 6.193 20.627 8.29 28.867 0 4.145 2.048 8.29 2.048 12.386 2.048 8.29 2.048 14.433 4.144 22.723 0 4.096 0 6.193 2.048 10.289 0 10.337 2.048 22.723 2.048 33.011 2.097 16.53 2.097 26.82 0 39.205zm-140.385-121.71c-14.434-8.29-14.434-28.916-2.048-39.253 12.385-10.289 37.156-24.722 45.397 0 8.29 24.771-28.867 47.494-43.35 39.253zM512 862.354A452.706 452.706 0 0158.027 408.381 452.706 452.706 0 01512-45.592 452.706 452.706 0 01965.973 408.38 452.706 452.706 0 01512 862.354zM512-4.34c-226.987 0-412.72 185.734-412.72 412.721S285.012 821.101 512 821.101s412.72-185.733 412.72-412.72S738.988-4.339 512-4.339z" horiz-adv-x="1024"/><glyph glyph-name="icon_star_normal" unicode="" d="M986.264 550.775a68.676 68.676 0 01-56.115 46.558l-247.603 35.499L574.41 857.498a69.905 69.905 0 01-124.86 0L341.487 632.9 93.882 597.402A68.676 68.676 0 0137.7 550.844a66.014 66.014 0 0116.247-68.54l182.136-181.93L193.757 48.06a66.482 66.482 0 0128.33-65.741c21.709-14.882 49.971-16.384 73.182-3.891L512.016 95.232 728.83-21.504c23.21-12.493 51.404-10.923 73.182 3.891a66.628 66.628 0 0128.33 65.741l-42.325 252.314 182.135 181.93a66.014 66.014 0 0116.111 68.403zM738.661 347.341a66.014 66.014 0 01-17.613-57.617l42.394-252.382-216.815 116.736a70.451 70.451 0 01-66.901 0L261.75 37.342l41.165 252.382a66.014 66.014 0 01-18.773 57.617L101.938 529.27 351.93 567.5a68.95 68.95 0 0151.951 37.888l108.135 223.437L620.15 604.5c10.24-20.07 29.628-33.928 51.883-37l248.832-37.069-182.205-183.09z" horiz-adv-x="1024"/><glyph glyph-name="icon_time" unicode="" d="M354.219 733.781h314.88v79.36h-314.88v-79.36zm472.32 0h78.933c21.419 0 39.253-18.517 39.253-41.984V78.507c0-23.382-17.92-41.899-39.594-41.899H118.272a40.704 40.704 0 00-39.51 41.899v613.29c0 23.467 17.75 41.984 39.595 41.984h80.214v79.275h-80.214C52.651 813.056 0 758.613 0 691.797V78.507C0 11.776 52.65-42.667 118.272-42.667h786.773c65.707 0 118.358 54.528 118.358 121.259v613.205c0 66.816-52.48 121.259-117.931 121.259h-78.933v-79.36zM236.203 856.576a39.253 39.253 0 1078.677 0v-166.57a39.253 39.253 0 10-78.677 0v166.57zm472.32 0a39.253 39.253 0 1078.677 0v-166.4a39.253 39.253 0 10-78.677 0v166.4zm-472.32-368.043c0 21.931 17.664 39.68 39.594 39.68H747.52a39.595 39.595 0 100-79.36H275.627a39.51 39.51 0 00-39.51 39.68zm0-204.288c0 21.931 17.664 39.595 39.594 39.595H747.52a39.595 39.595 0 100-79.36l-471.893.085a39.51 39.51 0 00-39.51 39.68z" horiz-adv-x="1024"/><glyph glyph-name="img_empty" unicode="" d="M1357.017 804.785l-678.263 90.506V536.36l678.263-71.266zM136.133 777.807L678.754 895.29V487.76L136.133 370.294zm633.01-135.838l587.854 162.816V35.052L769.122-127.744zm-633.01 135.838l632.99-135.838v-765.558l-632.99 154.19zm633.01-134.656l-633.01 134.656L.473 506.132l655.635-154.21zm0-1.182l587.854 162.816 158.326-271.714-565.248-185.462-180.933 294.36z" horiz-adv-x="1516"/><glyph glyph-name="app_store" unicode="" d="M3327.232 875.52a107.469 107.469 0 00107.469-107.443V.487a107.469 107.469 0 00-107.495-107.444H128A107.469 107.469 0 0020.48.486v767.59A107.469 107.469 0 00128 875.52h3199.232zm0 20.48H127.949A128.333 128.333 0 010 768.077V.487a128.333 128.333 0 01127.974-127.924h3199.232a128.333 128.333 0 01128 127.923v767.59a128.333 128.333 0 01-128 127.924zM770.355 380.698a148.378 148.378 0 0070.656 124.595 152.602 152.602 0 01-119.552 64.742c-50.432 5.12-99.302-30.208-124.902-30.208-26.112 0-65.51 29.696-108.263 28.672a159.309 159.309 0 01-134.092-81.613C296.346 386.33 339.61 238.95 395.162 157.85c27.648-39.936 60.134-84.173 102.604-82.637 41.728 1.792 57.344 26.598 107.52 26.598 49.639 0 64.23-26.624 107.47-25.6 44.8.768 72.96 39.936 99.583 80.103a324.89 324.89 0 0145.568 92.62 143.437 143.437 0 00-87.552 131.764zm-81.92 242.56a145.152 145.152 0 0133.536 104.652 147.584 147.584 0 01-96.23-49.664 139.238 139.238 0 01-34.304-100.787 122.88 122.88 0 0197.024 45.799zm683.879-542.439h-58.112l-31.719 100.045h-110.771l-30.208-100.045h-56.576l109.542 340.557h67.84l110.03-340.557zm-99.559 142.003l-28.672 89.063c-3.072 8.96-8.96 30.438-17.408 64.205h-1.024c-3.328-14.592-8.704-36.096-16.128-64.205l-28.134-89.063h91.392zm381.62-16.128a138.931 138.931 0 00-34.049-98.995 99.149 99.149 0 00-75.264-32.256 74.982 74.982 0 00-69.606 34.816h-1.024V-19.2h-54.528v264.806c0 26.368-.768 53.223-2.048 80.845h47.872l3.072-38.886h1.024a97.075 97.075 0 00155.366 9.728 135.578 135.578 0 0029.184-90.573zm-55.553-2.048a98.995 98.995 0 01-16.384 59.136 55.936 55.936 0 01-47.36 24.32 57.253 57.253 0 01-36.582-13.312 61.927 61.927 0 01-21.504-35.328 67.684 67.684 0 01-2.56-16.64v-40.934a65.166 65.166 0 0116.384-45.03 54.633 54.633 0 0142.752-18.432 55.86 55.86 0 0147.872 23.552 104.884 104.884 0 0117.408 62.694zm337.844 2.048a139.98 139.98 0 00-33.792-98.995 99.149 99.149 0 00-75.239-32.256 74.982 74.982 0 00-69.632 34.816h-1.024V-19.2h-54.758v264.806c0 26.368-.512 53.223-2.048 80.845h48.128l3.072-38.886h1.024a97.075 97.075 0 00155.34 9.728 135.578 135.578 0 0028.929-90.573zm-55.552-2.048a100.762 100.762 0 01-16.128 59.136 56.064 56.064 0 01-47.59 24.32 58.06 58.06 0 01-36.609-13.312 63.206 63.206 0 01-21.504-35.328 79.2 79.2 0 01-2.304-16.64v-40.934c-.435-16.538 5.402-32.64 16.384-45.03 10.752-12.263 26.47-19.021 42.752-18.432a56.166 56.166 0 0147.872 23.552 104.448 104.448 0 0117.152 62.694zm371.379-28.134a90.624 90.624 0 00-30.208-70.86 134.323 134.323 0 00-92.647-29.697 161.28 161.28 0 00-88.294 21.248l12.544 45.312a151.68 151.68 0 0178.848-21.76 74.854 74.854 0 0148.102 14.08c11.316 8.909 17.664 22.682 17.152 37.095a47.616 47.616 0 01-14.08 35.046 132.864 132.864 0 01-47.104 26.112c-59.648 22.246-89.318 54.989-89.318 97.715a86.989 86.989 0 0031.232 68.839 123.853 123.853 0 0083.43 26.88 165.555 165.555 0 0077.312-16.128l-13.568-44.544a133.786 133.786 0 01-65.28 15.616 66.56 66.56 0 01-44.8-14.08 40.33 40.33 0 01-13.824-30.95 42.436 42.436 0 0115.616-33.28 175.795 175.795 0 0149.664-26.343 168.422 168.422 0 0064.768-41.447c13.978-16.332 21.274-37.35 20.48-58.854zm180.454 109.005h-60.16v-119.22c0-30.207 10.752-45.567 32-45.567 8.09-.077 16.154.768 24.064 2.56l1.536-41.447a127.846 127.846 0 00-42.24-5.888 65.933 65.933 0 00-50.688 19.712 96.82 96.82 0 00-18.176 66.279v123.57h-35.84v40.96h35.84v44.98l53.504 16.128v-61.158h60.16V285.49zm271.54-79.821a135.168 135.168 0 00-32.513-92.877 114.688 114.688 0 00-89.83-37.376 109.67 109.67 0 00-86.272 35.84 130.816 130.816 0 00-31.974 90.317 133.018 133.018 0 0033.024 93.389 114.304 114.304 0 0089.088 36.608 111.872 111.872 0 0086.988-36.096 128.128 128.128 0 0031.488-89.805zm-56.833-1.792a108.544 108.544 0 01-14.592 58.342 53.376 53.376 0 01-48.87 29.415 55.194 55.194 0 01-50.176-29.44 113.408 113.408 0 01-14.592-59.341 110.592 110.592 0 0114.592-58.086 55.04 55.04 0 0149.664-29.44 54.502 54.502 0 0148.896 29.952 108.53 108.53 0 0115.104 58.598zm234.19 74.7a123.546 123.546 0 01-17.409 1.28 50.79 50.79 0 01-44.288-21.76 80.64 80.64 0 01-13.798-48.332V80.819h-54.528l.512 168.371c0 28.16-.512 53.99-2.048 77.261h47.616l2.048-47.078h1.536a84.106 84.106 0 0027.136 38.912 65.357 65.357 0 0039.424 13.312c4.608-.077 9.216-.41 13.824-1.024v-51.968zm243.916-63.18c.23-8.32-.46-16.64-2.048-24.832h-163.533a70.093 70.093 0 0123.808-55.526 79.949 79.949 0 0153.479-17.152 183.987 183.987 0 0166.304 11.52l8.448-37.863a203.418 203.418 0 00-82.432-15.104 118.349 118.349 0 00-89.6 33.536 123.648 123.648 0 00-32.743 90.061 141.133 141.133 0 0030.464 92.62 105.14 105.14 0 0085.735 39.425 92.39 92.39 0 0080.64-39.424 134.259 134.259 0 0021.504-77.261zm-51.968 14.08a74.931 74.931 0 01-10.752 41.933 47.462 47.462 0 01-43.494 22.784 51.61 51.61 0 01-43.264-22.272 79.667 79.667 0 01-16.128-42.47h113.664zM1254.835 630.912a84.608 84.608 0 00-27.136-68.045 108.032 108.032 0 00-71.398-20.992 299.223 299.223 0 00-39.168 2.048V708.48a292.198 292.198 0 0046.336 3.328 101.35 101.35 0 0066.304-18.944 77.798 77.798 0 0025.088-61.9zm-28.416-.768a54.605 54.605 0 01-60.902 60.672 103.834 103.834 0 01-21.504-1.792V563.891c6.041-.64 12.109-.896 18.176-.768a62.464 62.464 0 0147.36 17.152 68.454 68.454 0 0116.896 49.895zm178.15-25.574a65.024 65.024 0 00-15.871-45.543 56.448 56.448 0 00-44.032-18.432 53.94 53.94 0 00-42.47 17.664 64.102 64.102 0 00-15.617 44.288 66.576 66.576 0 0016.128 46.029 57.267 57.267 0 0043.776 17.92 54.86 54.86 0 0042.752-17.664c10.496-12.288 16-28.083 15.335-44.262zm-27.647-.768a56.627 56.627 0 01-7.168 28.672 27.802 27.802 0 01-48.64 0 55.496 55.496 0 01-7.424-29.184c-.256-10.061 2.33-19.968 7.424-28.672 4.71-9.037 14.156-14.592 24.32-14.31 10.137-.052 19.456 5.58 24.064 14.591 5.094 8.781 7.68 18.765 7.424 28.928zm228.812 60.134l-37.632-120.5h-24.576l-15.872 52.174a362.547 362.547 0 00-9.446 39.168h-.512a291.584 291.584 0 00-9.728-39.168l-16.64-52.173h-24.832l-35.584 120.499h27.648l13.568-57.318c3.328-13.568 6.144-26.624 8.192-38.63h.512c2.048 9.983 5.376 22.783 9.984 38.4l17.152 57.548h21.76l16.384-56.294c4.096-13.824 7.168-27.136 9.728-39.91h.768a373.084 373.084 0 008.192 39.935l14.592 56.269h26.368zm138.983-120.5h-26.624v69.07c0 21.248-8.192 31.744-24.32 31.744a23.731 23.731 0 01-19.456-8.704 31.8 31.8 0 01-7.424-20.736v-71.373h-26.88v85.965c0 10.752-.256 22.272-1.024 34.534h23.552l1.28-18.944h.768c3.225 6.042 7.987 11.085 13.824 14.592a45.452 45.452 0 0024.32 6.912 38.167 38.167 0 0028.16-11.008 53.227 53.227 0 0013.824-39.91v-72.141zm73.984 0h-26.624v175.77h26.624v-175.77zm157.9 61.134a65.024 65.024 0 00-15.871-45.543 56.448 56.448 0 00-44.032-18.432 53.94 53.94 0 00-42.496 17.664 64.102 64.102 0 00-15.616 44.288 66.576 66.576 0 0016.128 46.029 57.267 57.267 0 0043.776 17.92 54.86 54.86 0 0042.752-17.664c10.521-12.288 16.025-28.083 15.36-44.262zm-27.903-.768a54.144 54.144 0 01-7.168 28.672 26.214 26.214 0 01-23.808 14.336 27.213 27.213 0 01-24.832-14.336 57.248 57.248 0 01-7.168-29.184 56.478 56.478 0 017.168-28.672 27.22 27.22 0 0124.576-14.31 26.252 26.252 0 0123.808 14.591 52.842 52.842 0 017.424 28.928zm157.926-60.365h-24.32l-1.792 13.824h-.768a41.472 41.472 0 00-35.328-16.64 36.608 36.608 0 00-27.648 11.008 33.997 33.997 0 00-9.216 24.55 37.248 37.248 0 0018.432 33.536 93.747 93.747 0 0051.968 11.495v2.304a21.53 21.53 0 01-25.088 23.808 57.318 57.318 0 01-31.488-8.96L2016 656.026a77.926 77.926 0 0041.472 10.47 43.06 43.06 0 0047.36-49.894v-44.519a169.472 169.472 0 011.792-28.672zm-27.904 41.446v18.432c-29.696.512-44.544-7.424-44.544-24.32a18.534 18.534 0 015.12-14.08 19.696 19.696 0 0113.312-4.608 27.772 27.772 0 0116.384 5.376 23.04 23.04 0 019.216 14.336 23.552 23.552 0 01.512 4.864zm180.173-41.472h-23.808l-1.28 19.2h-.768a39.987 39.987 0 00-38.656-22.016 45.44 45.44 0 00-36.327 17.152 66.662 66.662 0 00-14.336 44.288 70.144 70.144 0 0015.616 47.565 48.384 48.384 0 0037.376 16.896 36.198 36.198 0 0033.792-16.384h.512v69.094h26.88V575.923c0-11.776.256-22.784 1.024-32.512zm-27.904 50.688v20.199a66.81 66.81 0 01-.512 8.448 30.976 30.976 0 01-9.728 16.128 25.6 25.6 0 01-17.92 6.656 27.7 27.7 0 01-23.808-11.776 52.378 52.378 0 01-8.448-30.72c-.512-10.266 2.38-20.43 8.192-28.928 5.325-7.68 14.182-12.237 23.552-12.007a25.6 25.6 0 0120.992 9.984 32.182 32.182 0 017.68 22.016zm257.229 10.496a65.024 65.024 0 00-15.872-45.568 56.448 56.448 0 00-44.032-18.432 53.94 53.94 0 00-42.496 17.664 64.102 64.102 0 00-15.59 44.288 66.576 66.576 0 0016.127 46.029 57.267 57.267 0 0043.776 17.92 54.86 54.86 0 0042.752-17.664c10.496-12.288 16-28.083 15.335-44.262zm-27.648-.768a56.627 56.627 0 01-7.168 28.647 26.88 26.88 0 01-24.064 14.336 27.75 27.75 0 01-24.832-14.336 57.766 57.766 0 01-7.168-29.184 56.478 56.478 0 017.168-28.672 27.648 27.648 0 0148.64.256c5.094 8.806 7.68 18.79 7.424 28.928zm172.006-60.416h-26.88v69.12c0 21.223-7.936 31.693-24.32 31.693a24.422 24.422 0 01-19.456-8.704 31.685 31.685 0 01-7.424-20.71v-71.373h-26.88v85.965c0 10.752-.256 22.272-.768 34.534h23.552l1.28-18.944h.768a37.51 37.51 0 0013.824 14.592 44.449 44.449 0 0024.32 6.912 38.614 38.614 0 0028.16-11.008 53.328 53.328 0 0013.824-39.91v-72.141zm180.429 100.301h-29.44v-58.573c0-14.848 5.12-22.272 15.616-22.272a52.48 52.48 0 0112.032 1.28l.512-20.224a58.112 58.112 0 00-20.736-3.072 31.13 31.13 0 00-24.832 9.728 47.437 47.437 0 00-8.96 32.512v60.621h-17.664v20.224h17.664v22.016l26.368 7.936v-29.952h29.44v-20.224zm142.054-100.275h-26.88v68.557c0 21.504-8.192 32.256-24.32 32.256a25.6 25.6 0 01-25.6-18.688 34.432 34.432 0 01-1.28-9.728v-72.397h-26.624v175.77h26.624v-72.679h.512a40.75 40.75 0 0036.352 19.968 38.4 38.4 0 0027.648-11.008 55.56 55.56 0 0013.568-40.422v-71.63zm146.381 65.997a55.102 55.102 0 00-1.024-12.288h-80.358a34.393 34.393 0 0111.776-27.367 39.02 39.02 0 0126.112-8.448 89.729 89.729 0 0132.768 5.888l4.096-18.688a99.125 99.125 0 00-40.448-7.424 58.112 58.112 0 00-44.032 16.384 60.749 60.749 0 00-16.128 44.288 69.069 69.069 0 0014.848 45.517 51.814 51.814 0 0042.24 19.2 44.954 44.954 0 0039.424-19.2c7.424-11.187 11.161-24.422 10.752-37.862zm-25.6 6.912a35.185 35.185 0 01-5.12 20.48 23.45 23.45 0 01-21.248 11.264 25.14 25.14 0 01-21.478-11.008 40.934 40.934 0 01-7.936-20.736h55.808z" horiz-adv-x="3456"/><glyph glyph-name="icon_facebook" unicode="" d="M728.483 526.941H591.825v91.927c10.008 86.9 151.878 70.424 151.878 70.424l.047 5.957-.047.652V838.75h-.14c-4.84 1.21-282.298 67.817-337.454-145.827l-.046-.186c-.047-.465-.233-.93-.373-1.35-8.61-26.763-8.006-148.992-7.96-164.398H279.274V363.473h125.812V-81.455h183.25v444.882h140.148l15.779 163.514h-15.78z" horiz-adv-x="1024"/><glyph glyph-name="icon_twitter" unicode="" d="M919.18 594.246C932.445 296.82 712.052-34.91 322.095-34.91A590.662 590.662 0 000 60.183a420.259 420.259 0 01311.017 87.506 210.385 210.385 0 00-196.282 146.944 208.198 208.198 0 0194.86 3.63C108.59 318.65 38.771 410.345 41.1 508.323a206.383 206.383 0 0195.185-26.531C42.73 544.815 16.245 669.184 71.215 764.23c103.703-127.954 258.513-212.2 433.058-221.045-30.626 132.33 69.074 259.724 204.707 259.724 60.416 0 115.014-25.6 153.275-66.793a420.538 420.538 0 01133.492 51.34 212.015 212.015 0 00-92.393-117.015A416.954 416.954 0 011024 703.767a426.263 426.263 0 00-104.82-109.521" horiz-adv-x="1024"/><glyph glyph-name="icon_star_select" unicode="" d="M986.264 550.775a68.676 68.676 0 01-56.115 46.558l-247.603 35.499L574.41 857.498a69.905 69.905 0 01-124.86 0L341.487 632.9 93.882 597.402A68.676 68.676 0 0137.7 550.844a66.014 66.014 0 0116.247-68.54l182.136-181.93L193.757 48.06a66.482 66.482 0 0128.33-65.741c21.709-14.882 49.971-16.384 73.182-3.891L512.016 95.232 728.83-21.504c23.21-12.493 51.404-10.923 73.182 3.891a66.628 66.628 0 0128.33 65.741l-42.325 252.314 182.135 181.93a66.014 66.014 0 0116.111 68.403z" horiz-adv-x="1024"/><glyph glyph-name="pic_china" unicode="" d="M1096.929 408.896s3.287 17.676 6.813 17.676c3.518 0-19.016-5.643-19.016-5.643l-25.33 7.753-22.272-22.804s-16.43-14.805-20.179 15.752l-22.981 4.696s-32.135 28.455 4.227 30.087l14.065 10.578 2.587 13.858 22.28 19.286 18.293 19.278 16.183-3.056s-15.96-69.575 1.863-49.366c17.831 20.225 32.15 31.974 38.464 31.974 6.336 0 55.586 72.392 55.586 72.392l5.404-6.344s28.378-1.886 17.585 13.396c-10.794 15.29-.701 8.7 3.518 8.7 4.227 0 33.775 26.1 26.738 38.548-7.037 12.457 11.487-6.813 11.487-6.813l10.794 11.01s-16.892 47.524-15.013 53.168c1.878 5.643 11.025 13.165 11.025 14.104 0 .94 23.928-21.865 23.704 17.384-.261 39.256 11.957 85.088 5.852 90.746-6.113 5.644-24.39-15.99-24.39-15.99l-10.794-1.417-5.62-10.817-24.868-11.517-11.964 9.624-8.669 20.224-26.969 7.06s-14.32-.238-14.32.7c0 .948-10.547-4.695-10.547-4.695l-12.203 15.513s-49.958 73.809-55.824 74.286c-5.851.462-25.09-1.878-33.067 5.405-7.96 7.29-26.977-4.697-29.079-7.299-2.11-2.579-19.94-11.98-25.098-10.817-5.15 1.17-22.981-30.318-2.34-23.273 20.648 7.052 2.579-23.736-2.34-27.031-4.928-3.303-12.203-33.382-11.487-35.97.7-2.578 6.79-10.331-7.037-20.447-13.835-10.109-29.795-10.332-37.07-7.053-7.276 3.288-17.823-50.065-15.706-53.353 2.102-3.287 7.03-7.991 7.03-7.991s7.051 7.052 11.501 4.234c4.442-2.825 13.604 3.05 16.399-1.647 2.818-4.697 1.185 25.39 30.495 4.942 29.31-20.455 29.78-26.33 4.227-26.56-25.56-.224-.932-3.042-26.723-10.579l-4.943-10.332-4.226 5.158s-9.147-11.047-11.256-11.047c-2.102 0-.462-11.04-.462-11.04s-15.721-14.105-31.42-13.397c-15.72.701-6.112-29.14-48.325-15.736l-8.923-7.299s-5.851-24.205 1.886-27.254c7.745-3.071.709-14.112-6.105-14.112s-13.365-29.155-24.159-28.693c-10.794.485-50.89-10.57-50.89-10.57l-56.986-23.975s-7.977.462-9.147 5.174c-1.17 4.711-37.516 5.404-41.273 5.404-3.773 0-19.478 26.33-65.918 14.566-46.432-11.74-65.425 10.817-66.357 10.579-.939-.239-19.709 41.85-19.709 41.85l-40.573 27.262s-56.286 1.887-53.245 18.57l7.737 14.112s-.7 11.279 0 13.396c.7 2.117 3.28 8.93 3.28 8.93s-30.495 25.384-53.014 75.211l-6.737 3.996s-10.2-2.31-13.889-1.232c-3.695 1.062 1.579-9.162-25.683-15.698-27.262-6.513-7.383-34.383-7.383-34.383s12.664-31.735-52.23 12.872c0 0-11.617-36.13-22.703-41.08-11.087-4.928 4.057-13.397 4.057-13.397l-50.481 1.409s11.425-10.409-.87-16.922l.7.385v-15.906l3.172-8.985s-2.11-20.278-17.407-29.61V567.54l-11.61-4.75-2.464-5.644-12.31 2.464s-27.085-13.042-27.085-13.935c0-.886-26.207 1.247-26.207 3.18 0 1.94-12.849-11.456-12.849-11.456l-15.829 1.054-3.164 7.407s-13.204-.878-15.837 1.947c-2.64 2.826-3.68-7.406-18.816-7.406l.709.016-7.391-6.53v-6.35l-10.194-11.28 1.063-19.747 9.146 1.948 11.78-11.449s6.674-39.133-20.249-32.28c-26.9 6.867 28.679-28.21 28.679-28.21s4.58-7.752-6.16-14.974c-10.732-7.237 26.03-21.695 26.03-21.695s14.42-5.99 27.44-1.055c13.01 4.935 56.1-8.284 28.84-37.193l-14.42-14.104H82.818l1.763-7.753-4.573-4.589 5.974-10.578 5.104-3.526.177-15.683h-8.268l-5.798-6.513-10.031 10.578s-5.443-11.117.877-14.643c6.329-3.526.532-19.04-2.648-22.565-3.164-3.519 48.903-52.183 48.903-52.183l9.847 5.289s27.085-19.209 27.085-22.396c0-3.172 18.123-21.326 18.123-21.326l10.209 2.287s8.438.354 2.11-12.165c-6.337-12.503 14.065-12.333 14.065-12.333l29.025-24.16h15.474s24.267-16.205 40.804-7.051c16.53 9.161 20.048-1.948 11.61-13.573-8.445-11.626 19.694 7.575 20.233 12.34.523 4.751 18.462 10.394 27.277-2.293 8.792-12.68 12.126-5.474 15.29-4.943 3.172.523 11.256-.54 14.782-7.045 3.51-6.528 26.56 1.41 24.805 7.391-1.763 6.005 16.53 12.342 16.53 12.342l14.073-.347s15.298 19.401 37.294 9.339l18.993 9.354 7.39-6.182-4.572-5.112 10.362-7.391s-32.358-19.578 19.355-16.399c51.706 3.18 21.103-69.651 14.066-87.282C521.5.756 513.924-3.479 513.924-3.479l1.594-16.922 29.194 2.649-1.401-7.922s2.11-22.035 13.712-22.035c11.617 0 6.867-16.567-1.217-28.023 0 0 17.938-3.334 18.993-8.623s17.246-16.391 25.499-8.115c8.276 8.292 10.555-2.987 10.2-11.987-.338-9.008 13.55 0 13.55 0l-3.156 23.443s-6.166 11.117 10.017 9.516c16.175-1.578 19.693 9.7 19.693 9.7l8.615-4.75 8.792 5.105 3.873-1.055 4.742 1.948 5.982-5.29 4.389 5.644 8.469-2.117 9.492 3.71 3.164 10.918s12.496 11.294 18.64-2.464c6.174-13.758 32.904-6.19 32.904-6.19l-5.812-9.331 22.157-25.214s7.745 8.993 20.772-.708c13.018-9.7 15.12 1.24 15.12 1.24v8.283l21.095-11.286 16.014-.185s-10.363-27.854 8.984-30.672c19.348-2.826 9.5 8.623 9.5 8.623s-16.529 12.349 1.055 20.117c17.585 7.76 62.808 26.969 62.808 26.969l15.29 12.857-3.519 15.875 12.319-9.162s62.445 1.063 78.258 41.074l13.035 12.75 11.263 14.103-3.287 4.95 30.04 34.561s51.344 120.803 46.433 127.4c-4.943 6.583 15.936 22.081-41.982 19.725-57.927-2.34 26.73 27.74 32.366 27.74 5.643 0-4.928 25.613-4.928 25.613l-33.767 25.391-21.11 37.856s-32.358 14.096-21.103 29.379c11.248 15.266 34.938 57.587 57.21 57.356" horiz-adv-x="1270"/><glyph glyph-name="zhibiao" unicode="" d="M880.794 588.134l-330.599-329.83 28.775-28.672a81.408 81.408 0 01114.944 0l273.1 272.486a60.774 60.774 0 010 86.016 61.03 61.03 0 01-86.22 0zm-646.81-14.336L18.278 359.782a60.57 60.57 0 01-.204-85.81 61.286 61.286 0 0186.528-.206l215.705 214.016-86.323 86.016zm316.211-315.545l86.272 86.067-258.713 258.202a81.408 81.408 0 01-114.996 0l-28.774-28.672 316.211-315.546z" horiz-adv-x="1024"/></font>
</defs>
</svg>
